# xmcd CD database file
#
# Track frame offsets:
#	150
#	16403
#	29827
#	45172
#	58123
#	69066
#	89887
#	104025
#	120854
#	130183
#	149232
#	163120
#	177765
#	195564
#	206796
#
# Disc length: 2995 seconds
#
# Revision: 0
# Processed by: cddbd v1.5.2PL0 Copyright (c) Steve Scherf et al.
# Submitted via: CDex 1.51
#
DISCID=dd0bb10f
DTITLE=No Mercy Jugband - Trad. Jazz and Blues
DYEAR=1900
DGENRE=Jazz
TTITLE0=Good Morning Blues
TTITLE1=Little Red Hen
TTITLE2=Going Back To London
TTITLE3=Limehouse Blues
TTITLE4=Go Down Ol' Hannah
TTITLE5=I Can Dance
TTITLE6=Take This Hammer
TTITLE7=Long Gone Lost John
TTITLE8=Midnight Special
TTITLE9=Over On the New Burying Ground
TTITLE10=Ella Speed
TTITLE11=France Blues
TTITLE12=My Gal
TTITLE13=Duelling Banjos
TTITLE14=Precious Lord
EXTD=
EXTT0=
EXTT1=
EXTT2=
EXTT3=
EXTT4=
EXTT5=
EXTT6=
EXTT7=
EXTT8=
EXTT9=
EXTT10=
EXTT11=
EXTT12=
EXTT13=
EXTT14=
PLAYORDER=
